<svg width="93" height="70" viewBox="0 0 93 70" fill="none" xmlns="http://www.w3.org/2000/svg">
<path d="M46.8979 1.59473C50.4522 1.71303 53.7064 3.65623 55.4927 6.75L55.6597 7.05078C57.3342 10.188 57.2787 13.9775 55.4927 17.0713L55.4917 17.0723C54.9841 17.9506 54.3488 18.7459 53.6108 19.4375C54.9989 25.9001 58.1949 32.6236 61.729 36.4658C63.5892 38.4882 65.3322 39.4864 66.7671 39.5518C68.045 39.61 69.5458 38.9319 71.0356 36.3516L71.0454 36.3359L71.0552 36.3193L74.9487 29.9727C74.4946 28.9077 74.2591 27.7591 74.2583 26.5957V26.5947L74.269 26.1514C74.4999 21.5946 78.2681 17.9707 82.8823 17.9707C87.645 17.9709 91.5053 21.832 91.5054 26.5947L91.4966 26.9951C91.3201 30.8204 88.6375 34.0538 84.9556 34.9629C82.8223 40.9209 80.3862 49.2009 80.3862 55.9639V68.4072H12.7192L12.7192 55.9639C12.7192 49.2007 10.2823 40.9209 8.14893 34.9629C4.34027 34.0218 1.60142 30.593 1.6001 26.5957V26.5947L1.61084 26.1514C1.84166 21.5945 5.60993 17.9707 10.2241 17.9707C14.987 17.9707 18.8481 21.8319 18.8481 26.5947V26.5957C18.8474 27.759 18.6098 28.9068 18.1558 29.9717L22.0513 36.3193L22.061 36.3359L22.0708 36.3516C23.5606 38.9319 25.0615 39.61 26.3394 39.5518C27.7742 39.4862 29.5173 38.4881 31.3774 36.4658C34.9114 32.6238 38.1064 25.9007 39.4946 19.4385C38.7565 18.7468 38.1215 17.9508 37.6138 17.0723V17.0713C35.7702 13.8778 35.7703 9.94348 37.6138 6.75L37.7915 6.4541C39.6713 3.43521 42.9808 1.5887 46.5532 1.58887L46.8979 1.59473ZM40.8745 50.1387L46.3735 54.8018L51.0718 49.1016L46.5454 44.7148L40.8745 50.1387Z" fill="#FFB82F" stroke="#FFCE2D" stroke-width="2.81837"/>
<rect x="46.1833" y="41.7812" width="11.2735" height="11.2735" transform="rotate(43 46.1833 41.7812)" fill="#BD0026"/>
</svg>
