<svg width="38" height="38" viewBox="0 0 38 38" fill="none" xmlns="http://www.w3.org/2000/svg">
<rect width="38" height="38" rx="10" fill="#1B1B1B"/>
<path d="M33.0036 27.1802C32.2213 25.8755 29.2252 24.5181 26.3448 24.1641C24.5784 23.9644 22.2124 23.7588 19.0003 23.7559C15.7882 23.7596 13.4214 23.9644 11.6557 24.1641C8.77536 24.5188 5.77921 25.8755 4.99696 27.1802C4.5561 27.9803 4.10338 29.052 4.09521 30.5074C4.10338 31.9621 4.5561 33.0345 4.99696 33.8346C5.77921 35.1393 8.77536 36.4967 11.6557 36.8508C13.4221 37.0504 15.7889 37.256 19.0003 37.259C22.2124 37.2552 24.5784 37.0497 26.3448 36.8508C29.2259 36.4967 32.2213 35.1393 33.0036 33.8346C33.4437 33.0345 33.8972 31.9628 33.9053 30.5074C33.8972 29.0527 33.4437 27.9803 33.0036 27.1802Z" fill="url(#paint0_radial_2313_1814)"/>
<path fill-rule="evenodd" clip-rule="evenodd" d="M7.33959 8.00009H11.3896C11.9814 7.99462 12.5519 8.23151 12.9796 8.66031C13.9096 9.54059 14.5396 10.0122 14.9296 10.0122C15.2896 10.0122 13.3096 11.7727 8.95958 15.2939C8.59545 15.5875 8.16013 15.7683 7.70295 15.816C7.24577 15.8636 6.785 15.7761 6.37282 15.5634C5.96065 15.3507 5.61356 15.0213 5.37085 14.6125C5.12815 14.2037 4.99954 13.7318 4.9996 13.2504V10.4838C4.99691 10.1595 5.05538 9.83779 5.17165 9.53724C5.28793 9.23668 5.45971 8.96316 5.67714 8.73238C5.89457 8.5016 6.15337 8.31811 6.43866 8.19244C6.72395 8.06677 7.03012 8.00141 7.33959 8.00009Z" fill="#33B0F8"/>
<path fill-rule="evenodd" clip-rule="evenodd" d="M12.5294 9.98047H30.1394C30.7597 9.9813 31.3545 10.2399 31.7931 10.6996C32.2318 11.1593 32.4786 11.7826 32.4794 12.4327V17.9659C32.4786 18.616 32.2318 19.2393 31.7931 19.699C31.3545 20.1587 30.7597 20.4173 30.1394 20.4181H12.5294C11.9091 20.4173 11.3144 20.1587 10.8757 19.699C10.437 19.2393 10.1902 18.616 10.1895 17.9659V12.4327C10.1953 11.7842 10.4438 11.1641 10.8813 10.7055C11.3189 10.247 11.9107 9.98663 12.5294 9.98047Z" fill="#33B0F8"/>
<path fill-rule="evenodd" clip-rule="evenodd" d="M7.00968 11.4895H30.4696C30.5444 11.4895 30.6186 11.5049 30.6878 11.5349C30.7569 11.5649 30.8198 11.6089 30.8727 11.6644C30.9257 11.7199 30.9677 11.7857 30.9963 11.8582C31.0249 11.9307 31.0396 12.0084 31.0396 12.0869V21.2984C31.0396 21.3769 31.0249 21.4546 30.9963 21.5271C30.9677 21.5996 30.9257 21.6654 30.8727 21.7209C30.8198 21.7764 30.7569 21.8204 30.6878 21.8504C30.6186 21.8804 30.5444 21.8958 30.4696 21.8958H7.00968C6.93481 21.8958 6.86067 21.8804 6.79149 21.8504C6.72231 21.8204 6.65945 21.7764 6.60651 21.7209C6.55357 21.6654 6.51159 21.5996 6.48296 21.5271C6.45434 21.4546 6.43963 21.3769 6.43968 21.2984V12.0869C6.43456 12.0071 6.4458 11.927 6.47263 11.8521C6.49947 11.7772 6.54128 11.7092 6.59527 11.6526C6.64925 11.596 6.71416 11.5522 6.78564 11.5241C6.85711 11.496 6.9335 11.4842 7.00968 11.4895Z" fill="#0D0D0D"/>
<path fill-rule="evenodd" clip-rule="evenodd" d="M6.16951 12.4648H31.3094C31.6196 12.4652 31.917 12.5945 32.1363 12.8244C32.3556 13.0543 32.479 13.3659 32.4794 13.691V27.3982C32.4786 28.0483 32.2318 28.6716 31.7931 29.1313C31.3545 29.591 30.7598 29.8496 30.1394 29.8505H7.3395C6.71914 29.8496 6.12442 29.591 5.68576 29.1313C5.24709 28.6716 5.00031 28.0483 4.99951 27.3982V13.691C4.99989 13.3659 5.12328 13.0543 5.34261 12.8244C5.56195 12.5945 5.85932 12.4652 6.16951 12.4648Z" fill="url(#paint1_linear_2313_1814)"/>
<defs>
<radialGradient id="paint0_radial_2313_1814" cx="0" cy="0" r="1" gradientUnits="userSpaceOnUse" gradientTransform="translate(18.9995 31.7577) scale(14.9051 6.70728)">
<stop stop-color="#19B4F9" stop-opacity="0.75"/>
<stop offset="1" stop-color="#19B4F9" stop-opacity="0"/>
</radialGradient>
<linearGradient id="paint1_linear_2313_1814" x1="18.7371" y1="29.8533" x2="18.7371" y2="12.4685" gradientUnits="userSpaceOnUse">
<stop stop-color="#1D77F2"/>
<stop offset="1" stop-color="#18C1FA"/>
</linearGradient>
</defs>
</svg>
