<svg width="38" height="38" viewBox="0 0 38 38" fill="none" xmlns="http://www.w3.org/2000/svg">
<rect width="38" height="38" rx="10" fill="#E2F7FF"/>
<path d="M33.0036 27.1802C32.2213 25.8755 29.2252 24.5181 26.3448 24.1641C24.5784 23.9644 22.2124 23.7588 19.0003 23.7559C15.7882 23.7596 13.4214 23.9644 11.6557 24.1641C8.77536 24.5188 5.77921 25.8755 4.99696 27.1802C4.5561 27.9803 4.10338 29.052 4.09521 30.5074C4.10338 31.9621 4.5561 33.0345 4.99696 33.8346C5.77921 35.1393 8.77536 36.4967 11.6557 36.8508C13.4221 37.0504 15.7889 37.256 19.0003 37.259C22.2124 37.2552 24.5784 37.0497 26.3448 36.8508C29.2259 36.4967 32.2213 35.1393 33.0036 33.8346C33.4437 33.0345 33.8972 31.9628 33.9053 30.5074C33.8972 29.0527 33.4437 27.9803 33.0036 27.1802Z" fill="url(#paint0_radial_2297_2657)"/>
<path fill-rule="evenodd" clip-rule="evenodd" d="M7.33959 8.00009H11.3896C11.9814 7.99462 12.5519 8.23151 12.9796 8.66031C13.9096 9.54059 14.5396 10.0122 14.9296 10.0122C15.2896 10.0122 13.3096 11.7727 8.95958 15.2939C8.59545 15.5875 8.16013 15.7683 7.70295 15.816C7.24577 15.8636 6.785 15.7761 6.37282 15.5634C5.96065 15.3507 5.61356 15.0213 5.37085 14.6125C5.12815 14.2037 4.99954 13.7318 4.9996 13.2504V10.4838C4.99691 10.1595 5.05538 9.83779 5.17165 9.53724C5.28793 9.23668 5.45971 8.96316 5.67714 8.73238C5.89457 8.5016 6.15337 8.31811 6.43866 8.19244C6.72395 8.06677 7.03012 8.00141 7.33959 8.00009Z" fill="#1AA6F7"/>
<path fill-rule="evenodd" clip-rule="evenodd" d="M12.5294 9.98096H30.1394C30.7597 9.98179 31.3545 10.2404 31.7931 10.7001C32.2318 11.1598 32.4786 11.7831 32.4794 12.4332V17.9664C32.4786 18.6165 32.2318 19.2398 31.7931 19.6995C31.3545 20.1592 30.7597 20.4178 30.1394 20.4186H12.5294C11.9091 20.4178 11.3144 20.1592 10.8757 19.6995C10.437 19.2398 10.1902 18.6165 10.1895 17.9664V12.4332C10.1953 11.7847 10.4438 11.1646 10.8813 10.706C11.3189 10.2475 11.9107 9.98712 12.5294 9.98096Z" fill="#1AA6F7"/>
<path fill-rule="evenodd" clip-rule="evenodd" d="M7.00968 11.49H30.4696C30.5444 11.49 30.6186 11.5054 30.6878 11.5354C30.7569 11.5654 30.8198 11.6094 30.8727 11.6649C30.9257 11.7203 30.9677 11.7862 30.9963 11.8587C31.0249 11.9312 31.0396 12.0089 31.0396 12.0874V21.2989C31.0396 21.3774 31.0249 21.4551 30.9963 21.5276C30.9677 21.6001 30.9257 21.6659 30.8727 21.7214C30.8198 21.7769 30.7569 21.8209 30.6878 21.8509C30.6186 21.8809 30.5444 21.8963 30.4696 21.8962H7.00968C6.93481 21.8963 6.86067 21.8809 6.79149 21.8509C6.72231 21.8209 6.65945 21.7769 6.60651 21.7214C6.55357 21.6659 6.51159 21.6001 6.48296 21.5276C6.45434 21.4551 6.43963 21.3774 6.43968 21.2989V12.0874C6.43456 12.0075 6.4458 11.9275 6.47263 11.8526C6.49947 11.7777 6.54128 11.7097 6.59527 11.6531C6.64925 11.5965 6.71416 11.5527 6.78564 11.5246C6.85711 11.4964 6.9335 11.4847 7.00968 11.49Z" fill="white"/>
<path fill-rule="evenodd" clip-rule="evenodd" d="M6.16951 12.4644H31.3094C31.6196 12.4648 31.917 12.5941 32.1363 12.8239C32.3556 13.0538 32.479 13.3654 32.4794 13.6905V27.3977C32.4786 28.0479 32.2318 28.6711 31.7931 29.1308C31.3545 29.5905 30.7598 29.8491 30.1394 29.85H7.3395C6.71914 29.8491 6.12442 29.5905 5.68576 29.1308C5.24709 28.6711 5.00031 28.0479 4.99951 27.3977V13.6905C4.99989 13.3654 5.12328 13.0538 5.34261 12.8239C5.56195 12.5941 5.85932 12.4647 6.16951 12.4644Z" fill="url(#paint1_linear_2297_2657)"/>
<defs>
<radialGradient id="paint0_radial_2297_2657" cx="0" cy="0" r="1" gradientUnits="userSpaceOnUse" gradientTransform="translate(18.9995 31.7577) scale(14.9051 6.70728)">
<stop stop-color="#19B4F9" stop-opacity="0.75"/>
<stop offset="1" stop-color="#19B4F9" stop-opacity="0"/>
</radialGradient>
<linearGradient id="paint1_linear_2297_2657" x1="18.7371" y1="29.8528" x2="18.7371" y2="12.468" gradientUnits="userSpaceOnUse">
<stop stop-color="#1D77F2"/>
<stop offset="1" stop-color="#18C1FA"/>
</linearGradient>
</defs>
</svg>
