<svg width="83" height="45" viewBox="0 0 83 45" fill="none" xmlns="http://www.w3.org/2000/svg">
<g filter="url(#filter0_d_2203_2819)">
<rect x="10" y="6" width="63" height="25" rx="10" fill="url(#paint0_linear_2203_2819)" shape-rendering="crispEdges"/>
</g>
<path d="M22.0367 13.3515L24.8905 15.8625L27.433 12.732C27.5042 12.6445 27.5942 12.5742 27.6963 12.5263C27.7985 12.4784 27.9101 12.4541 28.0229 12.4553C28.1357 12.4566 28.2468 12.4832 28.3479 12.5333C28.449 12.5834 28.5375 12.6557 28.6067 12.7447L31.033 15.8618L33.979 13.3147C34.0947 13.2149 34.2381 13.1528 34.39 13.1368C34.542 13.1207 34.6952 13.1514 34.8292 13.2248C34.9632 13.2982 35.0716 13.4108 35.1399 13.5475C35.2082 13.6842 35.2331 13.8385 35.2112 13.9897L34.0862 21.75H21.9415L20.7992 14.025C20.7765 13.8729 20.8011 13.7176 20.8697 13.5799C20.9382 13.4423 21.0474 13.3291 21.1825 13.2556C21.3175 13.1821 21.4719 13.1518 21.6247 13.169C21.7775 13.1862 21.9213 13.2499 22.0367 13.3515ZM22 22.5H34V23.25C34 23.4489 33.921 23.6397 33.7803 23.7803C33.6397 23.921 33.4489 24 33.25 24H22.75C22.5511 24 22.3603 23.921 22.2196 23.7803C22.079 23.6397 22 23.4489 22 23.25V22.5Z" fill="white"/>
<defs>
<filter id="filter0_d_2203_2819" x="0" y="0" width="83" height="45" filterUnits="userSpaceOnUse" color-interpolation-filters="sRGB">
<feFlood flood-opacity="0" result="BackgroundImageFix"/>
<feColorMatrix in="SourceAlpha" type="matrix" values="0 0 0 0 0 0 0 0 0 0 0 0 0 0 0 0 0 0 127 0" result="hardAlpha"/>
<feOffset dy="4"/>
<feGaussianBlur stdDeviation="5"/>
<feComposite in2="hardAlpha" operator="out"/>
<feColorMatrix type="matrix" values="0 0 0 0 0.988235 0 0 0 0 0.588235 0 0 0 0 0.0705882 0 0 0 0.15 0"/>
<feBlend mode="normal" in2="BackgroundImageFix" result="effect1_dropShadow_2203_2819"/>
<feBlend mode="normal" in="SourceGraphic" in2="effect1_dropShadow_2203_2819" result="shape"/>
</filter>
<linearGradient id="paint0_linear_2203_2819" x1="41.5" y1="6" x2="41.5" y2="31" gradientUnits="userSpaceOnUse">
<stop stop-color="#0479FF" stop-opacity="0.88"/>
<stop offset="0.985577" stop-color="#004999"/>
</linearGradient>
</defs>
</svg>
