<svg width="38" height="38" viewBox="0 0 38 38" fill="none" xmlns="http://www.w3.org/2000/svg">
<rect width="38" height="38" rx="10" fill="#FFEDC7"/>
<path d="M33.0036 27.1798C32.2213 25.875 29.2252 24.5176 26.3448 24.1636C24.5784 23.9639 22.2124 23.7583 19.0003 23.7554C15.7882 23.7591 13.4214 23.9639 11.6557 24.1636C8.77536 24.5183 5.77921 25.875 4.99696 27.1798C4.5561 27.9798 4.10338 29.0515 4.09521 30.5069C4.10338 31.9616 4.5561 33.034 4.99696 33.8341C5.77921 35.1388 8.77536 36.4963 11.6557 36.8503C13.4221 37.0499 15.7889 37.2555 19.0003 37.2585C22.2124 37.2548 24.5784 37.0492 26.3448 36.8503C29.2259 36.4963 32.2213 35.1388 33.0036 33.8341C33.4437 33.034 33.8972 31.9623 33.9053 30.5069C33.8972 29.0523 33.4437 27.9798 33.0036 27.1798Z" fill="url(#paint0_radial_2297_2615)"/>
<path d="M13.9279 14.7199C14.2519 14.7199 14.5399 14.7559 14.8279 14.8279C14.7559 14.5399 14.7199 14.2159 14.7199 13.9279V9.31994C14.7199 9.10394 14.7559 8.92394 14.7559 8.74394C13.0639 7.48394 10.6519 7.62794 9.13994 9.13994C7.62794 10.6519 7.48394 13.0639 8.74394 14.7559C8.92394 14.7199 9.13994 14.7199 9.31994 14.7199H13.9279Z" fill="#FF7E7B"/>
<path d="M18.7521 18.2121C18.5361 18.2121 18.3561 18.1761 18.1401 18.1401C18.1761 18.3201 18.2121 18.5361 18.2121 18.7521C18.3201 18.6801 18.3921 18.6081 18.5001 18.5001C18.5721 18.3921 18.6441 18.3201 18.7521 18.2121Z" fill="#FF6F3F"/>
<path d="M18.4999 12.38C18.7159 12.596 18.9319 12.848 19.0759 13.1C19.2559 12.848 19.4359 12.596 19.6519 12.38L22.8919 9.14C23.0359 8.996 23.1439 8.888 23.2879 8.78C23.0719 6.656 21.2359 5 19.0399 5C16.8439 5 15.0439 6.62 14.7559 8.744C14.9359 8.852 15.0799 8.996 15.2239 9.14L18.4999 12.38Z" fill="#FFAC00"/>
<path d="M19.4 18.2121C19.292 18.0681 19.148 17.9241 19.076 17.7441C18.968 17.8881 18.86 18.0681 18.752 18.2121C18.86 18.2121 18.968 18.2121 19.04 18.2121C19.148 18.2481 19.292 18.2121 19.4 18.2121Z" fill="#FFC300"/>
<path d="M14.72 13.9281C14.72 14.2521 14.756 14.5401 14.828 14.8281C16.484 15.1881 17.78 16.4841 18.14 18.1401C18.32 18.1761 18.536 18.2121 18.752 18.2121C18.86 18.0681 19.004 17.9241 19.076 17.7441C18.176 16.3401 18.176 14.5041 19.076 13.1001C18.896 12.8481 18.716 12.5961 18.5 12.3801L15.26 9.14014C15.116 8.99614 14.936 8.85214 14.792 8.74414C14.756 8.92414 14.72 9.10414 14.72 9.32014V13.9281Z" fill="#FF3400"/>
<path d="M23.36 13.928C23.36 14.252 23.324 14.54 23.252 14.828C23.54 14.756 23.864 14.72 24.152 14.72H28.76C28.976 14.72 29.192 14.756 29.408 14.792C30.668 13.1 30.56 10.688 29.012 9.13995C27.464 7.59195 25.016 7.48395 23.324 8.77995C23.36 8.95995 23.36 9.13995 23.36 9.31995V13.928Z" fill="#FFF92C"/>
<path d="M19.8679 18.6801C19.8679 18.5001 19.9039 18.3201 19.9399 18.1401C19.7599 18.1761 19.5799 18.2121 19.3999 18.2121C19.4719 18.3201 19.5799 18.3921 19.6519 18.5001C19.7239 18.5721 19.7959 18.6081 19.8679 18.6801Z" fill="#DAE411"/>
<path d="M19.6519 12.3798C19.4359 12.5958 19.2199 12.8478 19.0759 13.0998C19.9759 14.5038 19.9759 16.3398 19.0759 17.7438C19.1839 17.8878 19.2919 18.0678 19.3999 18.2118C19.5799 18.2118 19.7599 18.1758 19.9399 18.1398C20.2999 16.4838 21.5959 15.1878 23.2519 14.8278C23.3239 14.5398 23.3599 14.2158 23.3599 13.9278V9.31979C23.3599 9.13979 23.3599 8.95979 23.3239 8.77979C23.1799 8.88779 23.0359 8.99579 22.9279 9.13979L19.6519 12.3798Z" fill="#EAA200"/>
<path d="M19.0759 13.1001C18.1759 14.5041 18.1759 16.3401 19.0759 17.7441C19.9759 16.3401 19.9759 14.5401 19.0759 13.1001Z" fill="#E63300"/>
<path d="M19.832 19.0397C19.832 19.1837 19.832 19.3277 19.868 19.4717C20.048 19.3277 20.228 19.1837 20.408 19.0757C20.228 18.9677 20.048 18.8237 19.868 18.6797C19.868 18.7877 19.832 18.9317 19.832 19.0397Z" fill="#83D567"/>
<path d="M33.08 19.04C33.08 16.88 31.496 15.08 29.408 14.792C29.3 14.972 29.156 15.116 29.012 15.26L25.772 18.5C25.556 18.716 25.304 18.932 25.052 19.076C25.304 19.256 25.556 19.436 25.772 19.652L29.012 22.892C29.156 23.036 29.264 23.144 29.372 23.288C31.46 23 33.08 21.236 33.08 19.04Z" fill="#A2DD50"/>
<path d="M24.1519 14.7197C23.8279 14.7197 23.5399 14.7557 23.2519 14.8277C22.8919 16.4837 21.5959 17.7797 19.9399 18.1397C19.9039 18.3197 19.8679 18.4997 19.8679 18.6797C20.0479 18.8237 20.2279 18.9677 20.4079 19.0757C21.8119 18.1757 23.6479 18.1757 25.0519 19.0757C25.3039 18.8957 25.5559 18.7157 25.7719 18.4997L29.0119 15.2597C29.1559 15.1157 29.2999 14.9357 29.4079 14.7917C29.1919 14.7557 28.9759 14.7197 28.7599 14.7197H24.1519Z" fill="#8BC100"/>
<path d="M23.2519 14.8281C21.5959 15.1881 20.2999 16.4841 19.9399 18.1401C21.5959 17.7801 22.8919 16.4841 23.2519 14.8281Z" fill="#8D8800"/>
<path d="M24.152 23.36C23.828 23.36 23.54 23.324 23.252 23.252C23.324 23.54 23.36 23.864 23.36 24.152V28.76C23.36 28.976 23.324 29.156 23.324 29.372C25.016 30.704 27.464 30.596 29.048 29.012C30.596 27.464 30.74 25.016 29.408 23.288C29.156 23.324 28.976 23.36 28.76 23.36H24.152Z" fill="#44C899"/>
<path d="M19.4719 19.8677C19.6159 19.8677 19.7959 19.9037 19.9399 19.9397C19.9039 19.7957 19.8679 19.6157 19.8679 19.4717C19.7959 19.5437 19.7239 19.5797 19.6519 19.6517C19.5799 19.7237 19.5439 19.7957 19.4719 19.8677Z" fill="#4EBFBD"/>
<path d="M25.7719 19.6522C25.5559 19.4362 25.3039 19.2202 25.0519 19.0762C23.6479 19.9762 21.8119 19.9762 20.4079 19.0762C20.2279 19.1842 20.0479 19.3282 19.8679 19.4722C19.8679 19.6162 19.9039 19.7962 19.9399 19.9402C21.5959 20.3002 22.8919 21.5962 23.2519 23.2522C23.5399 23.3242 23.8639 23.3602 24.1519 23.3602H28.7599C28.9759 23.3602 29.1559 23.3242 29.3719 23.3242C29.2639 23.1802 29.1559 23.0362 29.0119 22.9282L25.7719 19.6522Z" fill="#00A33F"/>
<path d="M20.408 19.0759C21.812 19.9759 23.648 19.9759 25.052 19.0759C23.612 18.1759 21.812 18.1759 20.408 19.0759Z" fill="#008D08"/>
<path d="M18.6799 19.868C18.8239 20.048 18.9679 20.228 19.0759 20.408C19.1839 20.228 19.3279 20.048 19.4719 19.868C19.3279 19.868 19.1839 19.832 19.0399 19.832C18.9319 19.832 18.7879 19.868 18.6799 19.868Z" fill="#859ED5"/>
<path d="M19.652 25.7718C19.436 25.5558 19.22 25.3038 19.076 25.0518C18.896 25.3038 18.716 25.5558 18.5 25.7718L15.26 29.0118C15.116 29.1558 14.936 29.2998 14.792 29.4078C15.08 31.4958 16.88 33.0798 19.04 33.0798C21.236 33.0798 23 31.4598 23.324 29.3718C23.18 29.2638 23.036 29.1558 22.928 29.0118L19.652 25.7718Z" fill="#6EACDF"/>
<path d="M23.3599 24.1522C23.3599 23.8282 23.3239 23.5402 23.2519 23.2522C21.5959 22.8922 20.2999 21.5962 19.9399 19.9402C19.7959 19.9042 19.6159 19.8682 19.4719 19.8682C19.3279 20.0482 19.1839 20.2282 19.0759 20.4082C19.9759 21.8122 19.9759 23.6482 19.0759 25.0522C19.2559 25.3042 19.4359 25.5562 19.6519 25.7722L22.8919 29.0122C23.0359 29.1562 23.1439 29.2642 23.2879 29.3722C23.3239 29.1562 23.3239 28.9762 23.3239 28.7602V24.1522H23.3599Z" fill="#1D7B97"/>
<path d="M23.2519 23.2519C22.8919 21.5959 21.5959 20.2999 19.9399 19.9399C20.2999 21.5959 21.5959 22.8919 23.2519 23.2519Z" fill="#00683A"/>
<path d="M18.2121 19.3999C18.2121 19.5799 18.1761 19.7599 18.1401 19.9399C18.3201 19.9039 18.5001 19.8679 18.6801 19.8679C18.6081 19.7959 18.5721 19.7239 18.5001 19.6519C18.3921 19.5799 18.3201 19.5079 18.2121 19.3999Z" fill="#BE85C1"/>
<path d="M14.7198 24.152C14.7198 23.828 14.7558 23.54 14.8278 23.252C14.5398 23.324 14.2158 23.36 13.9278 23.36H9.31984C9.13984 23.36 8.95984 23.36 8.77984 23.324C7.44784 25.016 7.59184 27.464 9.13984 29.012C10.6878 30.56 13.0998 30.668 14.7918 29.408C14.7558 29.192 14.7198 28.976 14.7198 28.76V24.152Z" fill="#AB86C4"/>
<path d="M18.5 25.7722C18.716 25.5562 18.932 25.3042 19.076 25.0522C18.176 23.6482 18.176 21.8122 19.076 20.4082C18.968 20.2282 18.824 20.0482 18.68 19.8682C18.5 19.8682 18.32 19.9042 18.14 19.9402C17.78 21.5962 16.484 22.8922 14.828 23.2522C14.756 23.5402 14.72 23.8642 14.72 24.1522V28.7602C14.72 28.9762 14.756 29.1922 14.792 29.4082C14.972 29.3002 15.116 29.1562 15.26 29.0122L18.5 25.7722Z" fill="#5D53A6"/>
<path d="M19.0759 25.0522C19.9759 23.6482 19.9759 21.8122 19.0759 20.4082C18.1759 21.8122 18.1759 23.6122 19.0759 25.0522Z" fill="#243F76"/>
<path d="M18.2121 18.752C18.0681 18.86 17.9241 19.004 17.7441 19.076C17.8881 19.184 18.0681 19.292 18.2121 19.4C18.2121 19.292 18.2481 19.148 18.2481 19.04C18.2481 18.932 18.2121 18.824 18.2121 18.752Z" fill="#F1648A"/>
<path d="M12.38 19.652C12.596 19.436 12.848 19.22 13.1 19.076C12.848 18.896 12.596 18.716 12.38 18.5L9.14 15.26C8.996 15.116 8.852 14.936 8.744 14.792C6.62 15.044 5 16.844 5 19.04C5 21.236 6.656 23.072 8.78 23.324C8.888 23.18 8.996 23.036 9.14 22.928L12.38 19.652Z" fill="#E275A8"/>
<path d="M12.3801 18.4997C12.5961 18.7157 12.8481 18.9317 13.1001 19.0757C14.5041 18.1757 16.3401 18.1757 17.7441 19.0757C17.8881 18.9677 18.0681 18.8597 18.2121 18.7517C18.2121 18.5357 18.1761 18.3557 18.1401 18.1397C16.4841 17.7797 15.1881 16.4837 14.8281 14.8277C14.5401 14.7557 14.2161 14.7197 13.9281 14.7197H9.32014C9.10414 14.7197 8.92414 14.7557 8.74414 14.7557C8.85214 14.9357 8.99614 15.0797 9.14014 15.2237L12.3801 18.4997Z" fill="#E40017"/>
<path d="M14.8281 14.8281C15.1881 16.4841 16.4841 17.7801 18.1401 18.1401C17.7801 16.4841 16.4841 15.1881 14.8281 14.8281Z" fill="#E60000"/>
<path d="M13.9278 23.3602C14.2518 23.3602 14.5398 23.3242 14.8278 23.2522C15.1878 21.5962 16.4838 20.3002 18.1398 19.9402C18.1758 19.7602 18.2118 19.5802 18.2118 19.4002C18.0678 19.2922 17.9238 19.1482 17.7438 19.0762C16.3398 19.9762 14.5038 19.9762 13.0998 19.0762C12.8478 19.2562 12.5958 19.4362 12.3798 19.6522L9.13979 22.8922C8.99579 23.0362 8.88779 23.1442 8.77979 23.2882C8.95979 23.3602 9.13979 23.3602 9.31979 23.3602H13.9278Z" fill="#9F3174"/>
<path d="M13.1001 19.0759C14.5041 19.9759 16.3401 19.9759 17.7441 19.0759C16.3401 18.1759 14.5401 18.1759 13.1001 19.0759Z" fill="#9F0017"/>
<path d="M14.8281 23.2519C16.4841 22.8919 17.7801 21.5959 18.1401 19.9399C16.4841 20.2999 15.1881 21.5959 14.8281 23.2519Z" fill="#561E5D"/>
<defs>
<radialGradient id="paint0_radial_2297_2615" cx="0" cy="0" r="1" gradientUnits="userSpaceOnUse" gradientTransform="translate(18.9995 31.7572) scale(14.9051 6.70728)">
<stop stop-color="#FF9500" stop-opacity="0.75"/>
<stop offset="1" stop-color="#FF9500" stop-opacity="0"/>
</radialGradient>
</defs>
</svg>
