<svg width="15" height="12" viewBox="0 0 15 12" fill="none" xmlns="http://www.w3.org/2000/svg">
<path d="M1.24571 0.896208L4.09946 3.40721L6.64196 0.276708C6.71316 0.189191 6.80318 0.118863 6.90532 0.0709611C7.00747 0.0230595 7.1191 -0.00118118 7.23191 4.42509e-05C7.34472 0.00126968 7.4558 0.0279296 7.55688 0.0780388C7.65796 0.128148 7.74644 0.200415 7.81571 0.289458L10.242 3.40646L13.188 0.859458C13.3037 0.759641 13.4471 0.697541 13.599 0.68147C13.751 0.665399 13.9042 0.696123 14.0382 0.769532C14.1722 0.84294 14.2806 0.95553 14.3489 1.09223C14.4172 1.22893 14.442 1.38323 14.4202 1.53446L13.2952 9.29471H1.15046L0.00821179 1.56971C-0.0144778 1.41764 0.0101203 1.26226 0.0786745 1.12464C0.147229 0.987007 0.256426 0.873775 0.391477 0.800275C0.526528 0.726774 0.680906 0.696558 0.833702 0.713717C0.986498 0.730876 1.13033 0.794583 1.24571 0.896208ZM1.20896 10.0447H13.209V10.7947C13.209 10.9936 13.1299 11.1844 12.9893 11.325C12.8486 11.4657 12.6579 11.5447 12.459 11.5447H1.95896C1.76005 11.5447 1.56928 11.4657 1.42863 11.325C1.28798 11.1844 1.20896 10.9936 1.20896 10.7947V10.0447Z" fill="#FFAE00"/>
</svg>
